<?xml version="1.0" standalone="no"?>
<!DOCTYPE svg PUBLIC "-//W3C//DTD SVG 20010904//EN"
 "http://www.w3.org/TR/2001/REC-SVG-20010904/DTD/svg10.dtd">
<svg version="1.0" xmlns="http://www.w3.org/2000/svg"
 width="1024.000000pt" height="637.000000pt" viewBox="0 0 1024.000000 637.000000"
 preserveAspectRatio="xMidYMid meet">

<g transform="translate(0.000000,637.000000) scale(0.100000,-0.100000)"
fill="#000000" stroke="none">
<path d="M3723 6356 c-125 -32 -237 -116 -289 -217 -51 -101 -57 -32 111
-1376 25 -199 36 -237 81 -272 33 -26 102 -28 147 -4 18 9 248 231 512 493
418 415 487 479 534 499 74 31 154 37 222 18 88 -26 70 -10 1149 -1049 240
-231 267 -254 284 -242 49 34 280 272 298 308 29 57 30 147 1 202 -14 26 -286
302 -732 745 -788 781 -757 755 -921 784 -80 15 -1076 109 -1260 120 -53 3
-104 0 -137 -9z"/>
<path d="M4500 4254 c-201 -200 -356 -362 -366 -383 -25 -52 -30 -142 -10
-194 13 -34 135 -161 608 -633 632 -630 614 -614 709 -614 93 0 90 -2 507 413
l393 392 -53 50 c-30 28 -130 119 -223 204 -94 85 -215 196 -270 246 -55 51
-113 104 -130 119 -16 16 -73 67 -125 115 -52 49 -196 180 -320 292 -124 112
-236 215 -250 229 -14 14 -47 44 -74 68 l-48 42 -348 -346z"/>
<path d="M597 1643 c-3 -5 -134 -289 -292 -633 -158 -344 -291 -633 -297 -643
-8 -16 0 -17 137 -15 l146 3 57 130 c31 72 61 136 65 143 12 18 590 17 605 0
5 -7 35 -71 65 -143 l55 -130 142 -3 c86 -1 140 1 138 7 -1 5 -136 298 -298
650 l-294 641 -112 0 c-62 0 -115 -3 -117 -7z m226 -555 c54 -124 97 -229 97
-232 0 -3 -92 -6 -205 -6 -113 0 -205 3 -205 6 0 3 39 96 86 207 48 111 93
217 101 236 8 18 18 30 22 25 4 -5 51 -111 104 -236z"/>
<path d="M1517 1643 c-4 -3 -7 -296 -7 -650 l0 -643 450 0 450 0 0 110 0 110
-310 0 -310 0 0 165 0 165 290 0 290 0 0 110 0 110 -290 0 -290 0 0 150 0 150
308 2 307 3 3 113 3 112 -444 0 c-244 0 -447 -3 -450 -7z"/>
<path d="M2960 995 l0 -645 50 0 50 0 2 272 3 273 255 6 c201 4 266 9 305 22
106 36 189 114 222 210 20 61 23 200 5 264 -18 62 -71 133 -129 174 -89 61
-140 69 -473 69 l-290 0 0 -645z m608 542 c124 -33 187 -120 187 -262 0 -44
-6 -97 -14 -119 -19 -55 -73 -110 -134 -137 -49 -23 -65 -24 -299 -27 l-248
-4 0 281 0 281 228 0 c158 0 243 -4 280 -13z"/>
<path d="M4930 995 l0 -645 50 0 50 0 0 80 c0 44 3 80 8 80 4 0 16 -16 27 -36
86 -160 377 -181 534 -38 183 164 185 558 4 725 -65 60 -142 92 -234 97 -135
8 -245 -41 -305 -135 l-29 -46 -3 281 -2 282 -50 0 -50 0 0 -645z m541 138
c119 -64 181 -238 150 -419 -30 -173 -118 -265 -268 -280 -217 -23 -353 172
-314 449 27 196 133 293 308 283 55 -3 85 -11 124 -33z"/>
<path d="M5880 995 l0 -645 55 0 55 0 0 645 0 645 -55 0 -55 0 0 -645z"/>
<path d="M7290 995 l0 -645 55 0 55 0 0 293 c0 332 4 354 70 430 91 104 283
126 376 45 67 -59 68 -66 72 -435 l3 -333 55 0 54 0 0 268 c0 400 -14 484 -91
561 -50 50 -111 74 -205 79 -132 7 -241 -37 -306 -124 l-28 -38 0 272 0 272
-55 0 -55 0 0 -645z"/>
<path d="M6180 1550 l0 -70 70 0 70 0 0 70 0 70 -70 0 -70 0 0 -70z"/>
<path d="M8210 1550 l0 -70 70 0 70 0 0 70 0 70 -70 0 -70 0 0 -70z"/>
<path d="M6697 1250 c-101 -26 -179 -94 -203 -179 -25 -85 -7 -157 57 -220 47
-47 90 -65 247 -104 164 -41 204 -64 224 -128 24 -82 -26 -153 -126 -180 -46
-13 -190 -6 -246 10 -20 6 -62 27 -94 46 -32 19 -60 35 -62 35 -2 0 -13 -18
-24 -39 l-20 -39 47 -31 c93 -62 144 -75 293 -75 128 -1 138 1 195 27 33 16
71 38 83 50 70 65 88 186 39 269 -44 76 -96 102 -305 153 -136 33 -186 64
-202 126 -51 190 232 268 443 122 20 -14 39 -24 42 -21 2 2 11 21 20 41 l15
37 -41 30 c-69 49 -143 72 -249 76 -52 2 -112 -1 -133 -6z"/>
<path d="M8833 1242 c-73 -26 -128 -65 -160 -114 l-28 -42 -3 77 -3 77 -49 0
-50 0 0 -445 0 -445 49 0 49 0 4 298 c3 287 4 299 27 350 56 124 195 191 335
162 68 -14 111 -48 140 -110 20 -42 21 -65 24 -372 l4 -328 49 0 50 0 -3 348
c-3 338 -4 348 -26 398 -28 61 -82 117 -137 140 -62 26 -207 29 -272 6z"/>
<path d="M9685 1240 c-109 -37 -191 -118 -240 -240 -22 -57 -32 -226 -16 -299
40 -185 173 -306 351 -318 146 -10 253 34 318 132 l34 50 -4 -145 c-3 -124 -6
-151 -25 -185 -46 -86 -114 -126 -223 -133 -105 -6 -181 11 -282 61 l-86 44
-17 -38 c-10 -20 -14 -42 -10 -48 11 -19 138 -79 202 -95 88 -23 244 -21 325
4 121 37 193 131 217 280 7 38 11 243 11 498 l0 432 -55 0 -55 0 0 -82 0 -82
-28 45 c-57 89 -136 129 -267 135 -71 3 -102 0 -150 -16z m244 -87 c134 -43
210 -184 199 -368 -7 -102 -43 -189 -101 -241 -60 -54 -99 -68 -197 -68 -104
1 -161 24 -220 91 -57 65 -75 126 -75 253 0 139 19 196 90 266 80 80 190 104
304 67z"/>
<path d="M4002 903 c4 -389 7 -403 88 -484 56 -56 120 -79 220 -79 119 0 226
49 275 128 11 17 23 31 28 32 4 0 7 -34 7 -75 l0 -75 50 0 50 0 0 445 0 445
-49 0 -49 0 -4 -292 c-5 -318 -7 -329 -64 -411 -79 -111 -282 -140 -380 -55
-59 52 -64 89 -64 445 l0 313 -56 0 -55 0 3 -337z"/>
<path d="M6200 795 l0 -445 50 0 50 0 0 445 0 445 -50 0 -50 0 0 -445z"/>
<path d="M8230 795 l0 -445 50 0 50 0 0 445 0 445 -50 0 -50 0 0 -445z"/>
</g>
</svg>
